<?xml version="1.0" encoding="utf-8"?>
<!-- Generator: Adobe Illustrator 19.2.1, SVG Export Plug-In . SVG Version: 6.00 Build 0)  -->
<svg version="1.1" id="Layer_1" xmlns="http://www.w3.org/2000/svg" xmlns:xlink="http://www.w3.org/1999/xlink" x="0px" y="0px"
	 viewBox="0 0 319.3 302" style="enable-background:new 0 0 319.3 302;" xml:space="preserve">
<style type="text/css">
	.st0{fill:#D84926;stroke:#D84A27;stroke-linecap:round;stroke-miterlimit:10;}
	.st1{fill:#CD4527;}
	.st2{fill:#AD3925;}
	.st3{fill:none;}
	.st4{fill:#B24734;}
	.st5{fill:#C83D27;}
	.st6{fill:#D6D3D6;}
	.st7{fill:#7C2417;}
	.st8{fill:#E6E7E8;stroke:#000000;stroke-width:2;stroke-linecap:round;stroke-miterlimit:10;}
	.st9{fill:#808284;}
	.st10{stroke:#000000;stroke-linecap:round;stroke-miterlimit:10;}
	.st11{fill:#010203;stroke:#000000;stroke-linecap:round;stroke-miterlimit:10;}
	.st12{fill:#8E8E8E;stroke:#000000;stroke-linecap:round;stroke-miterlimit:10;}
	.st13{fill:#808284;stroke:#3A3A3A;stroke-miterlimit:10;}
	.st14{fill:#F7F7F7;stroke:#000000;stroke-miterlimit:10;}
	.st15{fill:#F7F7F7;stroke:#000000;stroke-linecap:round;stroke-miterlimit:10;}
	.st16{stroke:#000000;stroke-width:2;stroke-linecap:round;stroke-miterlimit:10;}
	.st17{fill:none;stroke:#000000;stroke-linecap:round;stroke-miterlimit:10;}
	.st18{fill:none;stroke:#000000;stroke-width:2.5;stroke-linecap:round;stroke-miterlimit:10;}
	.st19{fill:#454545;stroke:#000000;stroke-linecap:round;stroke-miterlimit:10;}
</style>
<circle class="st0" cx="157" cy="147" r="124.3"/>
<g>
	<circle class="st1" cx="141.7" cy="173" r="83.3"/>
</g>
<circle class="st2" cx="66.5" cy="163.8" r="16.8"/>
<path class="st3" d="M200.2,24.1c0-0.1,0.1-0.3,0.1-0.4"/>
<path class="st3" d="M86.3,336.3c0.2-0.2,0.4-0.4,0.7-0.7"/>
<circle class="st4" cx="219.7" cy="112.3" r="28.7"/>
<circle class="st5" cx="86.3" cy="74.8" r="12.2"/>
<ellipse transform="matrix(0.7071 -0.7071 0.7071 0.7071 -92.1729 227.4749)" class="st5" cx="228.5" cy="225" rx="13.8" ry="9.3"/>
<path class="st6" d="M152.5,22.8c18.4-0.8,38.5,4.9,43.8,6.5c0.9,0.3,1.7,0.6,2.5,1.1c2.6,1.4,8.8,4.9,11.8,6.7
	c3.3,2,1.5,7.1-2.3,6.5l-13.9-2c-0.4-0.1-0.8-0.1-1.1,0.1c-0.2,0.2-0.3,0.5-0.4,0.8c-0.6,1.7-2.5,2.6-4.2,2.7
	c-1.8,0.1-3.5-0.4-5.2-0.9c-6.8-1.9-13.8-3.3-20.8-3.2c-1.6,0-3.6,0.3-4.3,1.8c-0.3,0.6-0.4,1.2-0.8,1.7c-0.5,0.6-1.4,0.7-2.2,0.7
	c-2.1,0.1-5.9-1.9-10.2-1.2c-4.4,0.6-11.6-5.1-17.3-2.8c-1.3,0.5-2.5,1.2-3.8,1.7c-4.9,2-19.2-0.4-19.4-1.9c-0.1-0.5,0.1-1-0.1-1.5
	c-0.3-1-2.3-1.8-2.2-2.7c0-0.5,0.7-0.8,0.9-0.9c13.7-6.7,21.5-8.7,21.5-8.7c7.1-1.8,10.6-2.6,12.7-3C137.5,24.5,145,23.1,152.5,22.8
	z"/>
<path class="st6" d="M154.9,270.8c22.7-1,28.4-2.6,28.5-4.2c0.1-0.9-1.7-2.2-1.8-2.3c-2-1.5-3.9-1-5.3-2.8c-0.6-0.7-0.4-1-0.9-1.3
	c-1-0.6-2.3,0-5.5,1.5c-4,1.8-4.7,2.1-5.8,2c-1.7-0.2-1.8-1.1-3.5-1.7c-4.5-1.7-7.9,3.5-12.5,2.1c-2.7-0.8-2.8-3-5.1-2.9
	c-2.7,0.1-4.2,3-6,2.3c-1.1-0.4-0.8-1.7-1.9-2c-1.2-0.3-1.9,1-5.2,3c-1.7,1.1-2.4,1.2-2.3,1.7c0,0.9,2.6,1.5,5.8,2.3
	c1.7,0.4,3,0.6,3.7,0.8c2.9,0.5,7.3,1,7.3,1s0,0,0,0C147.9,270.5,151.4,270.6,154.9,270.8z"/>
<path class="st7" d="M192.9,209c-0.2,0-0.5-0.6-0.4-1.1c0.1-1.1,2-1.6,2.5-1.8c2.4-0.7,3.2,0.2,4.4-0.5c1.4-0.9,1.7-3.2,1.5-3.3l0,0
	l-2.4-0.3c0,0-1-0.1-1.1-0.4c-0.6-1.2-0.4-2-0.3-2.4c0.8-2.5,5.9-3.2,8.9-3.1c0.4,0,0.8,0.4,0.8,0.8l0,1.5c0,0.3,0.1,0.6,0.4,0.7
	c0.2,0.1,0.4,0.2,0.7,0.4c6.3,2.9,15.3-6.7,18.1-4.3c0.1,0.1,0.5,0.4,0.5,1c0.1,1.8-4.2,3.3-7.8,4.6c-5.8,2.1-9.9,2.7-9.8,3.7
	c0,0.3,0.5,0.6,0.6,0.7c7.7,3.9,23.5-3.5,23.5-3.5s11-4.5,16.9-8c1.7-1,3.2-2,4.7-3c2-1.3,3.8-1.5,4.3-0.9c0.4,0.5-0.1,1.7-0.9,2.8
	l-0.2,0.2c0,0-7.2,4.3-10.9,6.4c-3.2,1.9-6.3,4.2-9.6,5.9c-3.3,1.8-6.8,3-10.4,4.3c-4.3,1.5-8.5,3-12.8,4.6
	c-4.5,1.6-8.2,2.8-11.9,3.8c-1.3,0.3-3.5,0.9-7.9,1.9c-6.6,1.5-9.9,2.3-11.6,2.6c-6.5,1.3-10.5,1.9-15.2,1.9c-0.7,0-3.9,0-3.9-0.4
	c0-0.4,4.3-0.7,11-2.1c0.5-0.1,7-1.5,14.6-4.2c0.8-0.3,2.5-0.9,4.6-2c3.3-1.7,6.7-4.3,6.5-5.3C199.6,208.3,195.3,208.8,192.9,209z"
	/>
<line class="st8" x1="287.6" y1="35.6" x2="274.3" y2="49.7"/>
<path class="st3" d="M218.6,31.7c0-0.2,0.1-0.3,0.1-0.5"/>
<path class="st9" d="M275.4,54.6l-4.1,23.8c-0.7,4.1-4.6,6.8-8.7,6.1l-48.8-8.3c-4.1-0.7-6.8-4.6-6.1-8.7l4.1-23.8
	c0.7-4.1,4.6-6.8,8.7-6.1l48.8,8.3C273.3,46.6,276.1,50.5,275.4,54.6z"/>
<ellipse transform="matrix(0.1682 -0.9858 0.9858 0.1682 88.6925 285.3897)" class="st10" cx="213.4" cy="90.1" rx="9.6" ry="9.6"/>
<ellipse transform="matrix(0.1682 -0.9858 0.9858 0.1682 103.8862 311.206)" class="st11" cx="236.3" cy="94" rx="9.6" ry="9.6"/>
<ellipse transform="matrix(0.1682 -0.9858 0.9858 0.1682 118.5328 336.0926)" class="st10" cx="258.4" cy="97.8" rx="9.6" ry="9.6"/>
<ellipse transform="matrix(0.1682 -0.9858 0.9858 0.1682 88.6925 285.3897)" class="st12" cx="213.4" cy="90.1" rx="6.1" ry="6.1"/>
<ellipse transform="matrix(0.1682 -0.9858 0.9858 0.1682 103.8862 311.206)" class="st12" cx="236.3" cy="94" rx="6.1" ry="6.1"/>
<ellipse transform="matrix(0.1682 -0.9858 0.9858 0.1682 118.5328 336.0926)" class="st12" cx="258.4" cy="97.8" rx="6.1" ry="6.1"/>
<path class="st9" d="M234.3,40.8l-7.6-27.2c-0.6-2.1-2.8-3.4-5-2.8l-37,10.6c-2.1,0.6-3.4,2.8-2.8,5l0.3,1.2c0.6,2.1,2.8,3.4,5,2.8
	l31.3-9l6.3,22.1L234.3,40.8z"/>
<path class="st13" d="M188.4,30.5l-1.1,6.2c-0.9,5-5.6,8.3-10.6,7.5l-22-3.8c-5-0.9-8.3-5.6-7.5-10.6l1.1-6.2
	c0.9-5,5.6-8.3,10.6-7.5l22,3.8C185.9,20.7,189.3,25.5,188.4,30.5z"/>
<ellipse transform="matrix(0.1682 -0.9858 0.9858 0.1682 104.7949 180.3628)" class="st14" cx="159.3" cy="28.1" rx="6.3" ry="6.3"/>
<ellipse transform="matrix(0.1682 -0.9858 0.9858 0.1682 116.7933 199.7558)" class="st15" cx="176.8" cy="30.7" rx="8.2" ry="8.3"/>
<ellipse transform="matrix(0.1682 -0.9858 0.9858 0.1682 105.1487 181.1297)" class="st10" cx="159.9" cy="28.3" rx="2.1" ry="2.1"/>
<ellipse transform="matrix(0.1682 -0.9858 0.9858 0.1682 115.8473 199.1424)" class="st10" cx="175.9" cy="30.9" rx="2.1" ry="2.1"/>
<ellipse transform="matrix(0.1682 -0.9858 0.9858 0.1682 204.7099 313.1991)" class="st16" cx="287.9" cy="35.3" rx="1" ry="1"/>
<path class="st17" d="M297.7,36.9c-0.2-5.6-4.9-10.1-10.5-9.9"/>
<path class="st17" d="M304.9,34.7c-0.2-8-7.3-14.2-15.8-14"/>
<path class="st17" d="M311.9,32.7c-1.8-11.8-11.8-20.1-22.4-18.4"/>
<line class="st18" x1="234.9" y1="59.4" x2="206.1" y2="48.3"/>
<line class="st18" x1="205.9" y1="49.2" x2="192.9" y2="61.8"/>
<ellipse transform="matrix(0.9085 -0.418 0.418 0.9085 -7.8707 86.4731)" class="st10" cx="193.5" cy="61.2" rx="2.4" ry="2.4"/>
<ellipse transform="matrix(1.226995e-002 -0.9999 0.9999 1.226995e-002 155.6786 254.6964)" class="st10" cx="206.8" cy="48.5" rx="2.4" ry="2.4"/>
<ellipse transform="matrix(0.1682 -0.9858 0.9858 0.1682 100.7675 194.784)" class="st19" cx="165.8" cy="37.7" rx="1.4" ry="3.7"/>
</svg>
